<?xml version="1.0" standalone="no"?><!DOCTYPE svg PUBLIC "-//W3C//DTD SVG 1.1//EN" "http://www.w3.org/Graphics/SVG/1.1/DTD/svg11.dtd"><svg t="1720483834783" class="icon" viewBox="0 0 1024 1024" version="1.1" xmlns="http://www.w3.org/2000/svg" p-id="11436" xmlns:xlink="http://www.w3.org/1999/xlink" width="200" height="200"><path d="M511.95 512.05m-448.18 0a448.18 448.18 0 1 0 896.36 0 448.18 448.18 0 1 0-896.36 0Z" fill="#4189FF" p-id="11437"></path><path d="M696.47 713.73H327l-2.49-1.44c-1.46-0.84-14.47-8.44-20.81-13.71-10.45-8.67-16.08-20.85-15.83-34.29l0.05-3.6c0.07-7.22 0.14-14.69 2.16-22.31 4.74-17.94 18.04-29.57 31.27-39.96 17.31-13.61 37.77-25.16 66.32-37.43 13.6-5.84 28.13-11.45 44.43-17.11 6.99-2.43 14.28-10.03 18.59-19.34 3.4-7.37 4.41-14.71 2.77-19.88l-0.8-0.94c-19.39-23.51-34.81-44.38-42.11-80.59-5.87-29.09-5.03-56.58 2.5-81.7 11.54-38.51 36.45-63.54 72.03-72.4 5.37-1.34 10.59-2.28 15.76-2.83v-0.59l21.78-0.03v0.63c5.17 0.55 10.4 1.5 15.77 2.84 35.58 8.85 60.48 33.89 72.03 72.39 7.52 25.11 8.36 52.6 2.51 81.69-7.32 36.23-22.73 57.09-42.12 80.6l-0.71 0.83a0.55 0.55 0 0 0-0.07 0.09c-1.65 5.22-0.64 12.55 2.76 19.89 4.31 9.33 11.59 16.91 18.58 19.33 16.26 5.66 30.78 11.25 44.44 17.12 28.55 12.28 48.99 23.82 66.32 37.43 12.63 9.93 26.52 22.02 31.26 39.97 2.01 7.59 2.08 15.05 2.15 22.26l0.05 3.65c0.25 13.44-5.38 25.62-15.84 34.3-6.34 5.26-19.33 12.86-20.8 13.7l-2.48 1.43z" fill="#FFFFFF" p-id="11438"></path></svg>